<svg width="446" height="339" viewBox="0 0 446 339" fill="none" xmlns="http://www.w3.org/2000/svg">
<path d="M389.365 114.552C490.865 249.5 442.806 337.552 348.365 337.552C253.925 337.552 35.8655 348.746 35.8655 259.552C35.8655 170.358 -65.6345 47.0005 72.8655 17C302.866 28.5005 348.365 67 389.365 114.552Z" fill="#DEEFFF"/>
<g clip-path="url(#clip0_31_56)">
<path d="M101 279.144C101 279.556 101.297 279.886 101.667 279.886H394.333C394.703 279.886 395 279.556 395 279.144C395 278.732 394.703 278.402 394.333 278.402H101.667C101.297 278.402 101 278.732 101 279.144Z" fill="#3F3C57"/>
<path d="M196.488 29.9695L199.671 46.1337L192.902 68.6327L181.995 44.4593L183.508 30.4353L196.488 29.9695Z" fill="#FDB4B4"/>
<path d="M200.262 45.2965H181.431V70.621H200.262V45.2965Z" fill="#907BFF"/>
<path d="M192.519 38.1117C199.621 38.1117 205.379 31.7031 205.379 23.7978C205.379 15.8924 199.621 9.48389 192.519 9.48389C185.416 9.48389 179.658 15.8924 179.658 23.7978C179.658 31.7031 185.416 38.1117 192.519 38.1117Z" fill="#FDB4B4"/>
<path d="M181.324 34.4416C181.324 34.4416 171.738 14.7366 180.381 5.25408C189.024 -4.22847 195.962 2.01994 195.962 2.01994L199.924 1.84172C199.924 1.84172 200.751 5.31214 202.083 3.43345C203.416 1.55477 205.823 8.3967 205.823 8.3967C210.292 17.3544 194.8 19.3611 194.8 19.3611C194.8 19.3611 195.919 23.3273 194.782 24.1579C193.645 24.9885 190.607 28.1131 190.607 28.1131L187.888 30.3989L186.272 27.6586C186.272 27.6586 184.584 26.1756 183.731 26.7985C182.878 27.4215 184.051 35.6181 184.051 35.6181L181.324 34.4416Z" fill="#2E2E41"/>
<path d="M165.896 179.408L160.979 261.041L173.066 261.497L189.047 180.092L165.896 179.408Z" fill="#2E2E41"/>
<path d="M195.193 178.952L190.276 260.584L202.363 261.041L218.343 179.636L195.193 178.952Z" fill="#2E2E41"/>
<path d="M162.935 198.059L169.37 109.149L159.502 62.8521C158.651 55.97 162.547 49.4581 168.56 47.6825L178.216 44.8312L182.49 40.0742L192.211 63.9674L198.282 40.0924L203.017 43.9252L217.06 50.8209L217.054 50.9823L214.801 106.909L219.829 197.267L219.606 197.27L162.935 198.059Z" fill="#E8E9EA"/>
<path d="M201.587 260.113L205.087 271.742C205.087 271.742 218.78 273.814 218.993 278.532C219.206 283.25 200.384 280.519 189.362 281.136C178.341 281.752 187.515 268.468 187.515 268.468L188.69 260.835L201.587 260.113Z" fill="#2E2E41"/>
<path d="M173.004 259.276L176.504 270.905C176.504 270.905 190.197 272.977 190.41 277.695C190.623 282.413 171.801 279.682 160.78 280.299C149.758 280.915 158.933 267.631 158.933 267.631L160.107 259.997L173.004 259.276Z" fill="#2E2E41"/>
<path d="M155.929 150.84C155.78 148.547 156.127 146.248 156.941 144.135L154.329 120.285L164.561 119.234L166.109 143.54C167.138 145.533 167.722 147.77 167.814 150.066C168.115 155.809 165.698 160.635 162.416 160.848C159.133 161.062 156.229 156.581 155.929 150.84Z" fill="#FDB4B4"/>
<path d="M220.738 154.341C220.613 152.046 220.982 149.751 221.817 147.648L219.438 123.769L229.68 122.841L230.99 147.164C231.999 149.17 232.561 151.415 232.631 153.711C232.876 159.457 230.412 164.254 227.127 164.427C223.843 164.601 220.982 160.085 220.738 154.341Z" fill="#FDB4B4"/>
<path d="M154.287 141.275L154.252 141.07L148.919 109.223L155.221 57.3639C155.783 52.734 159.497 49.3988 163.686 49.7716C165.874 49.9665 167.836 51.1212 169.213 53.0235C170.589 54.9258 171.185 57.3062 170.89 59.7266L166.147 98.6201L169.133 140.22L154.287 141.275Z" fill="#E8E9EA"/>
<path d="M217.578 140.528L206.856 60.8712C206.299 58.5355 206.625 56.0911 207.78 54.014C208.934 51.9369 210.753 50.5206 212.902 50.0258C217.014 49.0794 221.074 51.8766 222.147 56.3931L232.447 139.528L217.578 140.528Z" fill="#E8E9EA"/>
<path d="M192.526 71.2489C193.252 71.2489 193.842 70.593 193.842 69.7839C193.842 68.9748 193.252 68.3188 192.526 68.3188C191.799 68.3188 191.209 68.9748 191.209 69.7839C191.209 70.593 191.799 71.2489 192.526 71.2489Z" fill="#D6D7D8"/>
<path d="M192.526 82.3415C193.252 82.3415 193.842 81.6856 193.842 80.8764C193.842 80.0673 193.252 79.4114 192.526 79.4114C191.799 79.4114 191.209 80.0673 191.209 80.8764C191.209 81.6856 191.799 82.3415 192.526 82.3415Z" fill="#D6D7D8"/>
<path d="M192.526 93.434C193.252 93.434 193.842 92.7781 193.842 91.969C193.842 91.1598 193.252 90.5039 192.526 90.5039C191.799 90.5039 191.209 91.1598 191.209 91.969C191.209 92.7781 191.799 93.434 192.526 93.434Z" fill="#D6D7D8"/>
<path d="M192.526 104.527C193.252 104.527 193.842 103.871 193.842 103.061C193.842 102.252 193.252 101.596 192.526 101.596C191.799 101.596 191.209 102.252 191.209 103.061C191.209 103.871 191.799 104.527 192.526 104.527Z" fill="#D6D7D8"/>
<path d="M192.526 115.619C193.252 115.619 193.842 114.963 193.842 114.154C193.842 113.345 193.252 112.689 192.526 112.689C191.799 112.689 191.209 113.345 191.209 114.154C191.209 114.963 191.799 115.619 192.526 115.619Z" fill="#D6D7D8"/>
<path d="M192.526 126.712C193.252 126.712 193.842 126.056 193.842 125.247C193.842 124.438 193.252 123.782 192.526 123.782C191.799 123.782 191.209 124.438 191.209 125.247C191.209 126.056 191.799 126.712 192.526 126.712Z" fill="#D6D7D8"/>
<path d="M192.526 137.804C193.252 137.804 193.842 137.148 193.842 136.339C193.842 135.53 193.252 134.874 192.526 134.874C191.799 134.874 191.209 135.53 191.209 136.339C191.209 137.148 191.799 137.804 192.526 137.804Z" fill="#D6D7D8"/>
<path d="M192.526 148.897C193.252 148.897 193.842 148.241 193.842 147.432C193.842 146.623 193.252 145.967 192.526 145.967C191.799 145.967 191.209 146.623 191.209 147.432C191.209 148.241 191.799 148.897 192.526 148.897Z" fill="#D6D7D8"/>
<path d="M192.527 157.478L167.621 153.783L167.141 153.713L154.413 121.046L146.832 101.597H166.577L192.527 157.478Z" fill="#907BFF"/>
<path d="M292.387 33.5233L308.222 23.8684V51.4538H289.908L292.387 33.5233Z" fill="#2E2E41"/>
<path d="M311.617 39.6735L313.078 53.2163L302.546 76.5602L296.008 54.8332L299.082 39.2236L311.617 39.6735Z" fill="#FDB4B4"/>
<path d="M313.623 54.0248H295.437V78.4803H313.623V54.0248Z" fill="#907BFF"/>
<path d="M328.625 183.534L333.373 262.366L321.7 262.806L306.268 184.195L328.625 183.534Z" fill="#2E2E41"/>
<path d="M300.333 183.094L305.081 261.925L293.409 262.366L277.977 183.755L300.333 183.094Z" fill="#2E2E41"/>
<path d="M340.957 200.254L340.679 200.253L266.318 199.983L266.385 199.69L285.503 115.385L280.714 72.8388C279.806 64.7768 283.684 57.1566 290.363 53.8773L292.774 52.6935L297.354 48.986L303.214 72.0315L312.598 48.968L316.731 53.5682L326.054 56.3211C331.864 58.0368 335.629 64.3291 334.81 70.9575L334.8 71.0036L320.564 116.217L340.957 200.254Z" fill="#E8E9EA"/>
<path d="M294.158 261.47L306.613 262.167L307.747 269.538C307.747 269.538 316.607 282.367 305.964 281.771C295.32 281.176 277.144 283.813 277.35 279.257C277.555 274.701 290.778 272.7 290.778 272.7L294.158 261.47Z" fill="#2E2E41"/>
<path d="M321.76 260.662L334.215 261.358L335.349 268.73C335.349 268.73 344.209 281.558 333.565 280.963C322.922 280.368 304.746 283.005 304.952 278.449C305.157 273.893 318.38 271.892 318.38 271.892L321.76 260.662Z" fill="#2E2E41"/>
<path d="M333.165 155.138C332.876 160.682 330.071 165.009 326.901 164.803C323.731 164.597 321.397 159.937 321.688 154.391C321.777 152.174 322.341 150.013 323.334 148.089L324.829 124.617L334.71 125.632L332.188 148.663C332.973 150.704 333.309 152.924 333.165 155.138Z" fill="#FDB4B4"/>
<path d="M282.386 153.03C281.99 158.566 279.103 162.825 275.938 162.544C272.773 162.264 270.529 157.549 270.925 152.011C271.057 149.797 271.662 147.65 272.692 145.749L274.635 122.318L284.495 123.567L281.532 146.534C282.279 148.592 282.572 150.82 282.386 153.03Z" fill="#FDB4B4"/>
<path d="M334.757 145.91L320.406 144.891L320.423 144.651L323.29 104.71L318.71 67.1524C318.425 64.813 319.001 62.5119 320.331 60.6733C321.662 58.8345 323.559 57.7183 325.674 57.5298C329.722 57.1746 333.312 60.3935 333.856 64.8686L339.941 114.949L339.935 114.987L334.757 145.91Z" fill="#E8E9EA"/>
<path d="M284.775 144.38L270.402 143.413L270.433 143.161L280.345 63.15C281.387 58.7556 285.313 56.0526 289.286 56.967C291.363 57.4452 293.122 58.8142 294.237 60.8221C295.353 62.83 295.669 65.1925 295.125 67.4747L284.775 144.38Z" fill="#E8E9EA"/>
<path d="M302.909 79.0866C303.611 79.0866 304.18 78.4532 304.18 77.6719C304.18 76.8905 303.611 76.2571 302.909 76.2571C302.207 76.2571 301.638 76.8905 301.638 77.6719C301.638 78.4532 302.207 79.0866 302.909 79.0866Z" fill="#D6D7D8"/>
<path d="M302.909 89.7985C303.611 89.7985 304.18 89.1651 304.18 88.3838C304.18 87.6024 303.611 86.969 302.909 86.969C302.207 86.969 301.638 87.6024 301.638 88.3838C301.638 89.1651 302.207 89.7985 302.909 89.7985Z" fill="#D6D7D8"/>
<path d="M302.909 100.51C303.611 100.51 304.18 99.877 304.18 99.0957C304.18 98.3143 303.611 97.6809 302.909 97.6809C302.207 97.6809 301.638 98.3143 301.638 99.0957C301.638 99.877 302.207 100.51 302.909 100.51Z" fill="#D6D7D8"/>
<path d="M302.909 111.222C303.611 111.222 304.18 110.589 304.18 109.808C304.18 109.026 303.611 108.393 302.909 108.393C302.207 108.393 301.638 109.026 301.638 109.808C301.638 110.589 302.207 111.222 302.909 111.222Z" fill="#D6D7D8"/>
<path d="M302.909 121.934C303.611 121.934 304.18 121.301 304.18 120.52C304.18 119.738 303.611 119.105 302.909 119.105C302.207 119.105 301.638 119.738 301.638 120.52C301.638 121.301 302.207 121.934 302.909 121.934Z" fill="#D6D7D8"/>
<path d="M302.909 132.646C303.611 132.646 304.18 132.013 304.18 131.231C304.18 130.45 303.611 129.817 302.909 129.817C302.207 129.817 301.638 130.45 301.638 131.231C301.638 132.013 302.207 132.646 302.909 132.646Z" fill="#D6D7D8"/>
<path d="M302.909 143.358C303.611 143.358 304.18 142.725 304.18 141.943C304.18 141.162 303.611 140.529 302.909 140.529C302.207 140.529 301.638 141.162 301.638 141.943C301.638 142.725 302.207 143.358 302.909 143.358Z" fill="#D6D7D8"/>
<path d="M302.909 154.07C303.611 154.07 304.18 153.437 304.18 152.655C304.18 151.874 303.611 151.24 302.909 151.24C302.207 151.24 301.638 151.874 301.638 152.655C301.638 153.437 302.207 154.07 302.909 154.07Z" fill="#D6D7D8"/>
<path d="M304.838 46.5852C311.405 46.5852 316.728 40.6606 316.728 33.3521C316.728 26.0436 311.405 20.1189 304.838 20.1189C298.272 20.1189 292.949 26.0436 292.949 33.3521C292.949 40.6606 298.272 46.5852 304.838 46.5852Z" fill="#FDB4B4"/>
<path d="M311.069 17.904C311.639 19.1936 310.736 20.8046 309.54 21.3468C308.344 21.889 306.993 21.6693 305.718 21.4436C304.443 21.2179 303.09 21.0039 301.898 21.5557C300.355 22.2697 299.485 24.0607 298.736 25.7227C297.337 28.8254 295.938 31.9281 294.54 35.0309C293.856 36.5468 293.157 38.1309 293.144 39.8269C293.12 42.94 295.339 45.4279 296.533 48.2434C297.986 51.6714 297.866 55.8724 296.22 59.1908C294.574 62.5092 291.444 64.8604 288.063 65.3178C287.174 65.4381 286.232 65.425 285.432 64.9753C284.633 64.5255 284.022 63.5432 284.17 62.5596C284.46 60.6358 287.101 60.1863 287.586 58.3118C287.839 57.3333 287.391 56.2883 286.786 55.5241C286.182 54.7598 285.417 54.1636 284.841 53.373C283.511 51.5501 283.422 48.7361 284.634 46.8141C285.346 45.6845 286.448 44.8453 286.908 43.564C287.3 42.4719 287.158 41.2442 287.009 40.0797C286.818 38.5833 286.628 37.087 286.437 35.5906C286.214 33.8448 285.995 32.0364 286.435 30.3425C287.444 26.4607 291.382 24.6376 293.691 21.5196C294.764 20.0707 295.486 18.3282 296.587 16.9053C298.435 14.5176 301.343 13.2005 304.164 13.4743C306.984 13.7481 309.644 15.6059 311.093 18.3135" fill="#2E2E41"/>
<path d="M309.192 18.1487C308.611 18.3799 308.396 19.222 308.563 19.8829C308.73 20.5438 309.168 21.0689 309.569 21.5909C314.101 27.4948 315.155 36.425 312.145 43.4311C311.345 45.2946 310.279 47.0484 309.847 49.0574C309.533 50.5191 309.55 52.1225 308.821 53.3879C308.079 54.6762 306.609 55.5395 306.464 57.0611C306.371 58.0375 306.905 58.986 307.622 59.5584C308.339 60.1309 309.215 60.3929 310.076 60.6064C312.314 61.1615 314.603 61.4646 316.895 61.5095C317.643 61.5241 318.414 61.5061 319.1 61.1746C319.786 60.8431 320.371 60.1242 320.379 59.2922C320.385 58.6382 320.046 58.035 320.003 57.3828C319.873 55.4285 322.236 54.3889 322.696 52.4975C322.999 51.254 322.403 49.9744 321.767 48.8974C321.132 47.8204 320.407 46.6895 320.423 45.4013C320.438 44.1681 321.133 43.0821 321.404 41.886C321.777 40.2316 321.318 38.5011 320.863 36.8722C320.476 35.4874 320.088 34.1026 319.701 32.7177C319.289 31.2456 318.878 29.7735 318.466 28.3014C317.748 25.7314 316.993 23.0869 315.438 21.0256C313.883 18.9643 311.306 17.6133 309.009 18.4549" fill="#2E2E41"/>
<path d="M317.294 69.4275L316.479 69.1631C318.177 62.684 314.516 50.593 314.479 50.4717L315.283 50.1667C315.438 50.674 319.067 62.6646 317.294 69.4275Z" fill="#3F3C57"/>
<path d="M316.887 76.8695C318.845 76.8695 320.433 75.1026 320.433 72.923C320.433 70.7435 318.845 68.9766 316.887 68.9766C314.928 68.9766 313.341 70.7435 313.341 72.923C313.341 75.1026 314.928 76.8695 316.887 76.8695Z" fill="#3F3C57"/>
<path d="M293.589 86.8947H291.438C291.204 86.8947 291.014 86.6832 291.014 86.4223C291.014 86.1614 291.204 85.9499 291.438 85.9499H293.589C294.181 85.9499 294.738 85.693 295.157 85.2261C295.575 84.7595 295.805 84.1392 295.804 83.48L295.778 68.738C295.778 65.5354 293.437 62.9308 290.561 62.9308C287.684 62.9308 285.344 65.5354 285.344 68.7371L285.37 82.5356C285.372 83.8818 286.358 84.9853 287.568 84.9957L289.044 85.0081C289.278 85.0102 289.467 85.2231 289.465 85.4842C289.463 85.7437 289.273 85.9529 289.04 85.9529H289.037L287.561 85.9405C285.888 85.9262 284.524 84.3994 284.521 82.5375L284.495 68.738C284.495 65.0146 287.216 61.986 290.561 61.986C293.905 61.986 296.626 65.0146 296.626 68.7371L296.653 83.4781C296.654 84.3902 296.336 85.248 295.757 85.8934C295.179 86.539 294.408 86.8947 293.589 86.8947Z" fill="#3F3C57"/>
<path d="M289.041 87.155C289.871 87.155 290.545 86.4053 290.545 85.4806C290.545 84.5559 289.871 83.8063 289.041 83.8063C288.21 83.8063 287.536 84.5559 287.536 85.4806C287.536 86.4053 288.21 87.155 289.041 87.155Z" fill="#3F3C57"/>
<path d="M291.438 88.0967C292.269 88.0967 292.942 87.3471 292.942 86.4224C292.942 85.4977 292.269 84.748 291.438 84.748C290.607 84.748 289.934 85.4977 289.934 86.4224C289.934 87.3471 290.607 88.0967 291.438 88.0967Z" fill="#3F3C57"/>
<path d="M204.593 62.3464L203.778 62.0821C205.476 55.603 201.856 43.3247 201.82 43.2034L202.838 44.058C202.994 44.5652 206.366 55.5836 204.593 62.3464Z" fill="#3F3C57"/>
<path d="M175.948 63.4975L176.763 63.2332C175.065 56.7541 178.726 44.6631 178.763 44.5417L177.891 45.1916C177.736 45.6989 174.176 56.7347 175.948 63.4975Z" fill="#3F3C57"/>
<path d="M204.186 69.7885C206.144 69.7885 207.732 68.0216 207.732 65.842C207.732 63.6624 206.144 61.8955 204.186 61.8955C202.227 61.8955 200.64 63.6624 200.64 65.842C200.64 68.0216 202.227 69.7885 204.186 69.7885Z" fill="#3F3C57"/>
<path d="M179.728 87.7668H177.578C177.343 87.7668 177.153 87.5553 177.153 87.2944C177.153 87.0335 177.343 86.822 177.578 86.822H179.728C180.321 86.822 180.877 86.565 181.296 86.0982C181.714 85.6315 181.944 85.0113 181.943 84.352L181.917 69.61C181.917 66.4075 179.577 63.8028 176.7 63.8028C173.824 63.8028 171.483 66.4075 171.483 69.6091L171.509 83.4077C171.512 84.7539 172.498 85.8574 173.707 85.8677L175.183 85.8802C175.417 85.8823 175.606 86.0952 175.604 86.3563C175.603 86.6158 175.413 86.825 175.18 86.825H175.177L173.701 86.8125C172.028 86.7982 170.664 85.2715 170.66 83.4095L170.634 69.61C170.634 65.8867 173.355 62.858 176.7 62.858C180.045 62.858 182.766 65.8867 182.766 69.6091L182.792 84.3502C182.794 85.2622 182.476 86.1201 181.897 86.7655C181.318 87.4111 180.547 87.7668 179.728 87.7668Z" fill="#3F3C57"/>
<path d="M175.18 88.027C176.011 88.027 176.684 87.2774 176.684 86.3527C176.684 85.428 176.011 84.6783 175.18 84.6783C174.349 84.6783 173.676 85.428 173.676 86.3527C173.676 87.2774 174.349 88.027 175.18 88.027Z" fill="#3F3C57"/>
<path d="M177.578 88.9688C178.408 88.9688 179.082 88.2192 179.082 87.2945C179.082 86.3697 178.408 85.6201 177.578 85.6201C176.747 85.6201 176.073 86.3697 176.073 87.2945C176.073 88.2192 176.747 88.9688 177.578 88.9688Z" fill="#3F3C57"/>
</g>
<defs>
<clipPath id="clip0_31_56">
<rect width="294" height="282" fill="white" transform="translate(101)"/>
</clipPath>
</defs>
</svg>
